<svg width="1200" height="800" viewBox="0 0 1200 800" fill="none" xmlns="http://www.w3.org/2000/svg">
  <rect width="1200" height="800" fill="#E2E8F0"/>
  <rect y="560" width="1200" height="240" fill="#CBD5E1"/>
  <rect x="80" y="220" width="380" height="340" fill="#94A3B8"/>
  <rect x="130" y="270" width="120" height="120" fill="#E2E8F0"/>
  <rect x="275" y="270" width="120" height="120" fill="#E2E8F0"/>
  <rect x="130" y="415" width="265" height="105" fill="#E2E8F0"/>
  <rect x="530" y="290" width="420" height="270" fill="#64748B"/>
  <rect x="565" y="330" width="140" height="90" fill="#E2E8F0"/>
  <rect x="735" y="330" width="180" height="90" fill="#E2E8F0"/>
  <rect x="565" y="440" width="350" height="80" fill="#E2E8F0"/>
  <rect x="980" y="210" width="28" height="350" fill="#475569"/>
  <rect x="880" y="240" width="190" height="20" fill="#334155"/>
  <rect x="1050" y="240" width="20" height="165" fill="#334155"/>
  <rect x="865" y="560" width="250" height="75" fill="#1E293B"/>
  <rect x="880" y="575" width="80" height="45" fill="#94A3B8"/>
  <rect x="985" y="575" width="80" height="45" fill="#94A3B8"/>
  <circle cx="915" cy="650" r="22" fill="#0F172A"/>
  <circle cx="1060" cy="650" r="22" fill="#0F172A"/>
  <text x="80" y="120" fill="#1E293B" font-family="Arial, sans-serif" font-size="48" font-weight="700">
    Поставка материалов на объект
  </text>
</svg>
