<svg width="1200" height="800" viewBox="0 0 1200 800" fill="none" xmlns="http://www.w3.org/2000/svg">
  <rect width="1200" height="800" fill="#E2E8F0"/>
  <rect y="620" width="1200" height="180" fill="#CBD5E1"/>
  <rect x="200" y="170" width="540" height="450" fill="#94A3B8"/>
  <rect x="240" y="215" width="130" height="120" fill="#E2E8F0"/>
  <rect x="405" y="215" width="130" height="120" fill="#E2E8F0"/>
  <rect x="570" y="215" width="130" height="120" fill="#E2E8F0"/>
  <rect x="240" y="360" width="460" height="230" fill="#E2E8F0"/>
  <rect x="120" y="170" width="16" height="450" fill="#64748B"/>
  <rect x="760" y="170" width="16" height="450" fill="#64748B"/>
  <line x1="136" y1="220" x2="760" y2="220" stroke="#64748B" stroke-width="8"/>
  <line x1="136" y1="310" x2="760" y2="310" stroke="#64748B" stroke-width="8"/>
  <line x1="136" y1="400" x2="760" y2="400" stroke="#64748B" stroke-width="8"/>
  <line x1="136" y1="490" x2="760" y2="490" stroke="#64748B" stroke-width="8"/>
  <rect x="860" y="300" width="200" height="320" fill="#64748B"/>
  <rect x="900" y="350" width="120" height="60" fill="#E2E8F0"/>
  <rect x="900" y="430" width="120" height="60" fill="#E2E8F0"/>
  <rect x="900" y="510" width="120" height="70" fill="#E2E8F0"/>
  <text x="120" y="115" fill="#1E293B" font-family="Arial, sans-serif" font-size="44" font-weight="700">
    Фасадная реставрация
  </text>
</svg>
