<svg width="1200" height="800" viewBox="0 0 1200 800" fill="none" xmlns="http://www.w3.org/2000/svg">
  <rect width="1200" height="800" fill="#F1F5F9"/>
  <rect x="90" y="170" width="300" height="470" rx="20" fill="#1E293B"/>
  <rect x="130" y="220" width="220" height="120" rx="12" fill="#334155"/>
  <rect x="130" y="365" width="220" height="120" rx="12" fill="#475569"/>
  <rect x="130" y="510" width="220" height="90" rx="12" fill="#64748B"/>
  <rect x="450" y="170" width="300" height="470" rx="20" fill="#334155"/>
  <rect x="490" y="220" width="220" height="120" rx="12" fill="#475569"/>
  <rect x="490" y="365" width="220" height="120" rx="12" fill="#64748B"/>
  <rect x="490" y="510" width="220" height="90" rx="12" fill="#94A3B8"/>
  <rect x="810" y="170" width="300" height="470" rx="20" fill="#475569"/>
  <rect x="850" y="220" width="220" height="120" rx="12" fill="#64748B"/>
  <rect x="850" y="365" width="220" height="120" rx="12" fill="#94A3B8"/>
  <rect x="850" y="510" width="220" height="90" rx="12" fill="#CBD5E1"/>
  <text x="90" y="120" fill="#0F172A" font-family="Arial, sans-serif" font-size="44" font-weight="700">
    Крупные планы строительных материалов
  </text>
</svg>
