<svg width="1200" height="800" viewBox="0 0 1200 800" fill="none" xmlns="http://www.w3.org/2000/svg">
  <rect width="1200" height="800" fill="#E5E7EB"/>
  <rect y="630" width="1200" height="170" fill="#D1D5DB"/>
  <rect x="100" y="180" width="330" height="450" fill="#4B5563"/>
  <rect x="145" y="230" width="100" height="80" fill="#9CA3AF"/>
  <rect x="275" y="230" width="100" height="80" fill="#9CA3AF"/>
  <rect x="145" y="340" width="230" height="80" fill="#9CA3AF"/>
  <rect x="145" y="450" width="230" height="140" fill="#9CA3AF"/>
  <rect x="490" y="180" width="330" height="450" fill="#6B7280"/>
  <rect x="535" y="230" width="240" height="80" fill="#D1D5DB"/>
  <rect x="535" y="340" width="240" height="80" fill="#D1D5DB"/>
  <rect x="535" y="450" width="240" height="140" fill="#D1D5DB"/>
  <rect x="880" y="220" width="220" height="410" fill="#374151"/>
  <rect x="920" y="270" width="140" height="95" fill="#9CA3AF"/>
  <rect x="920" y="390" width="140" height="95" fill="#9CA3AF"/>
  <rect x="920" y="510" width="140" height="95" fill="#9CA3AF"/>
  <text x="90" y="120" fill="#111827" font-family="Arial, sans-serif" font-size="44" font-weight="700">
    Склад и логистика материалов
  </text>
</svg>
